# xmcd
#
# Track frame offsets:
# 150
# 26592
# 53237
# 74810
# 99775
# 127135
# 150434
# 172075
# 193677
#
# Disc length: 2847 seconds
#
#
# Revision: 0
# Processed by: cddbd v1.5.2PL0 Copyright (c) Steve Scherf et al.
# Submitted via: FreeRIP 2.951 
#
DISCID=7c0b1d09
DTITLE=Xuan Son  - Tieng hat Xuan Son
DYEAR=1900
DGENRE=Blues
TTITLE0=giot nuoc mat nga
TTITLE1=toc may
TTITLE2=tuong niem
TTITLE3=thang sau troi mua
TTITLE4=tram nho ngan thuong
TTITLE5=nang xuan
TTITLE6=noi buon
TTITLE7=dau vet moi hon
TTITLE8=bai tinh ca cho anh
EXTD=
EXTT0=
EXTT1=
EXTT2=
EXTT3=
EXTT4=
EXTT5=
EXTT6=
EXTT7=
EXTT8=
PLAYORDER=
